-:MOVIE NAME:-

Title : Transformers Dark of The Moon (2011) BD-RIP 1080p AUDIO HINDI-DTS 5.1 [BY-GPSOFT]

-:MOVIES DETAIL:-

Release Date : 29 June 2011 (India)
Release Length : 2h 28mn
Tagline : Earth goes dark..
Storyline: Autobots Bummblebee, Rachet, Ironhide and Sideswipe led by Optimus Prime, are back in action taking on the evil
Decepticons, who are eager to avenge their recent defeat. The Autobots and Decepticons become involved in a perilous space race
between the U.S. and Russia, to reach a hidden Cybertronian spacecraft on the moon and learn its secrets, and once again Sam
Witwicky has to come to the aid of his robot friends. New villain, Shockwave, who rules Cybertron, is on the scene while the
Autobots and Decepticons continue to battle it out on Earth.

:-CASTING-:

Shia LaBeouf ... Sam Witwicky
Josh Duhamel ... Lennox
John Turturro ... Simmons
Tyrese Gibson ... Epps
Rosie Huntington-Whiteley ... Carly Spencer
Patrick Dempsey ... Dylan
Rich Hutchman ... Engineer
Frances McDormand ... Mearing
Kevin Dunn ... Ron Witwicky
John Malkovich ... Bruce Brazos
Julie White ... Judy Witwicky
Alan Tudyk ... Dutch
Ken Jeong ... Jerry Wang
Glenn Morshower ... General Morshower
Lester Speight ... Eddie

:-IMDB-:

Budget:$195,000,000 (estimated)
Opening Weekend:$97,400,000 (USA) (3 July 2011) (4013 Screens)
Gross:$1,122,022,953 (Worldwide) (1 November 2011)

-:FILE DETAILS:-

Format : Matroska
Format version : Version 2
File size : 5.35 GiB
Duration : 2h 34mn

ID                               : 1
Format                           : AVC
Format/Info                      : Advanced Video Codec
Format profile                   : High@L4.1
Format settings, CABAC           : Yes
Format settings, ReFrames        : 3 frames
Muxing mode                      : Header stripping
Codec ID                         : V_MPEG4/ISO/AVC
Duration                         : 2h 34mn
Bit rate mode                    : Variable
Bit rate                         : 3 000 Kbps
Maximum bit rate                 : 62.5 Mbps
Width                            : 1 920 pixels
Height                           : 800 pixels
Display aspect ratio             : 2.40:1
Frame rate                       : 23.976 fps
Color space                      : YUV
Chroma subsampling               : 4:2:0
Bit depth                        : 8 bits
Scan type                        : Progressive
Bits/(Pixel*Frame)               : 0.081
Stream size                      : 3.13 GiB (59%)
Title                            : HINDI DTS-5.1CH CREATED BY-GPSOFT

Audio #1
ID                               : 2
Format                           : DTS
Format/Info                      : Digital Theater Systems
Muxing mode                      : Header stripping
Codec ID                         : A_DTS
Duration                         : 2h 34mn
Bit rate mode                    : Constant
Bit rate                         : 1 510 Kbps
Channel(s)                       : 6 channels
Channel positions                : Front: L C R, Side: L R, LFE
Sampling rate                    : 48.0 KHz
Bit depth                        : 24 bits
Compression mode                 : Lossy
Delay relative to video          : 1s 950ms
Stream size                      : 1.63 GiB (30%)
Title                            : CREATED HINDI DTS-5.1CH BY-GPSOFT
Language                         : Hindi

Audio #2
ID                               : 3
Format                           : AC-3
Format/Info                      : Audio Coding 3
Mode extension                   : CM (complete main)
Muxing mode                      : Header stripping
Codec ID                         : A_AC3
Duration                         : 2h 34mn
Bit rate mode                    : Constant
Bit rate                         : 448 Kbps
Channel(s)                       : 6 channels
Channel positions                : Front: L C R, Side: L R, LFE
Sampling rate                    : 48.0 KHz
Bit depth                        : 16 bits
Compression mode                 : Lossy
Delay relative to video          : 1s 900ms
Stream size                      : 495 MiB (9%)
Title                            : Original HINDI DD-5.1CH
Language                         : Hindi

==============::::KEEP SEEDING TO ALIVE TORRENT::::==============